<?xml version="1.0" encoding="UTF-8"?>
<svg width="200" height="88" viewBox="0 0 200 88" xmlns="http://www.w3.org/2000/svg">
  <path d="M85.616 41.527C82.664 41.734 79.4 42.008 76.688 43.144C76.464 43.245 76.108 43.245 76.108 43.55C76.184 43.855 76.28 44.041 76.432 44.16C77.68 45.251 79.36 45.671 80.86 46.123C83.228 46.863 85.616 47.592 87.984 48.332C88.976 48.669 90.956 49.23 91.176 50.389C90.068 50.456 88.548 50.895 87.536 51.247C83.912 52.416 80.416 53.843 77.16 55.633C75.704 56.456 73.612 57.336 72.656 58.843C70.392 62.16 73.348 65.244 75.928 66.748C77.232 67.535 78.764 68.038 80.3 68.601C82.844 69.517 85.376 70.352 87.98 71.182C89.46 71.635 91.196 71.869 92.416 72.518C93.156 72.906 93.896 73.448 94.452 73.974C95.568 75.025 96.564 76.361 97.46 77.633C98.348 78.903 99.06 80.286 99.756 81.677C100.072 82.269 100.18 82.905 100.616 83.308V83.001C100.368 82.665 100.31 82.204 100.116 81.825C99.648 80.96 99.124 80.161 98.608 79.346C97.128 77.055 95.356 74.966 93.456 73.087C92.084 71.728 88.872 69.852 88.148 68.294C88.052 68.162 88.004 67.987 87.912 67.813C88.612 67.738 89.444 67.526 90.116 67.341C91.476 67.003 92.732 67.077 94.1 66.739C94.772 66.57 95.448 66.401 96.12 66.232V65.756C95.336 64.972 94.82 63.914 94.116 63.067C92.028 60.599 89.696 58.378 87.32 56.28C86.408 55.486 85.304 54.923 84.34 54.242C83.944 53.958 83.168 53.766 82.912 53.35C82.412 52.556 82.232 51.608 81.916 50.685C81.032 48.192 80.188 45.526 79.38 42.972C78.912 41.559 78.584 40.17 78.036 38.848C74.428 30.944 70.472 26.67 61.752 22.358C59.568 21.371 56.988 20.883 54.408 20.558C52.968 20.516 51.528 20.474 50.088 20.432C49.184 20.117 48.248 19.177 47.488 18.668C44.708 16.846 35.904 12.807 32.492 18.837C30.312 22.706 33.912 26.511 35.424 28.547C36.5 29.945 37.772 31.471 38.548 32.992C39.008 33.938 39.072 34.904 39.5 35.903C40.432 38.131 41.112 40.535 42.352 42.555C42.976 43.57 43.676 44.638 44.428 45.569C44.892 46.14 45.668 46.405 45.824 47.273C45.148 48.19 45.096 49.586 44.708 50.811C43.076 56.342 43.804 63.138 46.492 66.901C47.204 67.834 48.828 69.832 50.856 69.159C52.648 68.556 52.052 66.298 52.608 64.502C52.776 64.018 52.652 63.662 52.944 63.361C52.944 63.403 52.944 63.444 52.944 63.486C53.652 64.902 54.36 66.317 55.068 67.733C56.58 69.927 59.328 72.188 61.868 73.596C63.184 74.328 64.128 75.868 65.704 76.278V75.971H65.536C65.244 75.552 64.812 75.371 64.444 75.077C63.532 74.345 62.556 73.468 61.868 72.645C59.64 69.969 57.668 67.023 55.932 63.947C55.1 62.45 54.368 60.817 53.704 59.274C53.448 58.733 53.448 57.898 53.004 57.635C52.228 58.921 51.08 60.006 50.488 61.525C49.616 63.796 49.508 66.484 48.896 69.199C48.564 69.242 48.692 69.199 48.56 69.326C47.204 68.965 46.656 67.603 46.088 66.41C44.54 63.247 44.26 58.025 45.5 54.211C45.852 53.121 47.336 49.946 46.668 48.942C46.372 48.04 45.492 47.532 44.944 46.836C44.336 46.054 43.676 45.079 43.256 44.202C42.144 41.833 41.644 39.13 40.608 36.715C40.104 35.525 39.132 34.347 38.384 33.279C37.524 32.075 36.564 31.151 35.92 29.734C35.652 29.165 35.276 28.191 35.68 27.58C35.76 27.197 36.016 27.048 36.368 26.95C37.076 26.593 39.132 27.197 39.884 27.454C42.072 28.109 44 28.723 45.92 29.692C46.86 30.156 47.816 31.119 48.896 31.384H50.336C52.16 31.693 54.148 31.361 55.876 31.823C58.808 32.602 61.4 33.984 63.716 35.51C70.836 40.171 76.436 47.033 79.812 55.507C80.34 56.783 80.56 57.993 81.044 59.326C82.028 62.05 83.348 64.854 84.34 67.536C85.316 70.177 86.268 72.859 87.644 75.251C88.34 76.431 91.524 77.068 92.908 77.786C93.884 78.284 95.316 78.75 96.12 79.346C97.668 80.459 99.172 81.677 100.616 82.894C101.332 83.574 104.14 85.156 104.14 85.156V88.421H36.368V8.421H104.14V85.156C104.14 85.156 101.332 83.574 100.616 82.894C99.172 81.677 97.668 80.459 96.12 79.346C95.316 78.75 93.884 78.284 92.908 77.786C91.524 77.068 88.34 76.431 87.644 75.251C86.268 72.859 85.316 70.177 84.34 67.536C83.348 64.854 82.028 62.05 81.044 59.326C80.56 57.993 80.34 56.783 79.812 55.507C76.436 47.033 70.836 40.171 63.716 35.51C61.4 33.984 58.808 32.602 55.876 31.823C54.148 31.361 52.16 31.693 50.336 31.384H48.896C47.816 31.119 46.86 30.156 45.92 29.692C44 28.723 42.072 28.109 39.884 27.454C39.132 27.197 37.076 26.593 36.368 26.95C36.016 27.048 35.76 27.197 35.68 27.58C35.276 28.191 35.652 29.165 35.92 29.734C36.564 31.151 37.524 32.075 38.384 33.279C39.132 34.347 40.104 35.525 40.608 36.715C41.644 39.13 42.144 41.833 43.256 44.202C43.676 45.079 44.336 46.054 44.944 46.836C45.492 47.532 46.372 48.04 46.668 48.942C47.336 49.946 45.852 53.121 45.5 54.211C44.26 58.025 44.54 63.247 46.088 66.41C46.656 67.603 47.204 68.965 48.56 69.326C48.692 69.199 48.564 69.242 48.896 69.199C49.508 66.484 49.616 63.796 50.488 61.525C51.08 60.006 52.228 58.921 53.004 57.635C53.448 57.898 53.448 58.733 53.704 59.274C54.368 60.817 55.1 62.45 55.932 63.947C57.668 67.023 59.64 69.969 61.868 72.645C62.556 73.468 63.532 74.345 64.444 75.077C64.812 75.371 65.244 75.552 65.536 75.971H65.704V76.278C64.128 75.868 63.184 74.328 61.868 73.596C59.328 72.188 56.58 69.927 55.068 67.733C54.36 66.317 53.652 64.902 52.944 63.486C52.944 63.444 52.944 63.403 52.944 63.361C52.652 63.662 52.776 64.018 52.608 64.502C52.052 66.298 52.648 68.556 50.856 69.159C48.828 69.832 47.204 67.834 46.492 66.901C43.804 63.138 43.076 56.342 44.708 50.811C45.096 49.586 45.148 48.19 45.824 47.273C45.668 46.405 44.892 46.14 44.428 45.569C43.676 44.638 42.976 43.57 42.352 42.555C41.112 40.535 40.432 38.131 39.5 35.903C39.072 34.904 39.008 33.938 38.548 32.992C37.772 31.471 36.5 29.945 35.424 28.547C33.912 26.511 30.312 22.706 32.492 18.837C35.904 12.807 44.708 16.846 47.488 18.668C48.248 19.177 49.184 20.117 50.088 20.432C51.528 20.474 52.968 20.516 54.408 20.558C56.988 20.883 59.568 21.371 61.752 22.358C70.472 26.67 74.428 30.944 78.036 38.848C78.584 40.17 78.912 41.559 79.38 42.972C80.188 45.526 81.032 48.192 81.916 50.685C82.232 51.608 82.412 52.556 82.912 53.35C83.168 53.766 83.944 53.958 84.34 54.242C85.304 54.923 86.408 55.486 87.32 56.28C89.696 58.378 92.028 60.599 94.116 63.067C94.82 63.914 95.336 64.972 96.12 65.756V66.232C95.448 66.401 94.772 66.57 94.1 66.739C92.732 67.077 91.476 67.003 90.116 67.341C89.444 67.526 88.612 67.738 87.912 67.813C88.004 67.987 88.052 68.162 88.148 68.294C88.872 69.852 92.084 71.728 93.456 73.087C95.356 74.966 97.128 77.055 98.608 79.346C99.124 80.161 99.648 80.96 100.116 81.825C100.31 82.204 100.368 82.665 100.616 83.001V83.308C100.18 82.905 100.072 82.269 99.756 81.677C99.06 80.286 98.348 78.903 97.46 77.633C96.564 76.361 95.568 75.025 94.452 73.974C93.896 73.448 93.156 72.906 92.416 72.518C91.196 71.869 89.46 71.635 87.98 71.182C85.376 70.352 82.844 69.517 80.3 68.601C78.764 68.038 77.232 67.535 75.928 66.748C73.348 65.244 70.392 62.16 72.656 58.843C73.612 57.336 75.704 56.456 77.16 55.633C80.416 53.843 83.912 52.416 87.536 51.247C88.548 50.895 90.068 50.456 91.176 50.389C90.956 49.23 88.976 48.669 87.984 48.332C85.616 47.592 83.228 46.863 80.86 46.123C79.36 45.671 77.68 45.251 76.432 44.16C76.28 44.041 76.184 43.855 76.108 43.55C76.108 43.245 76.464 43.245 76.688 43.144C79.4 42.008 82.664 41.734 85.616 41.527C86.568 41.435 87.52 41.342 88.472 41.25L87.972 40.84C86.588 40.467 85.096 40.403 83.704 40.031C81.012 39.298 78.368 38.345 76.108 37.09C71.184 34.528 66.944 30.994 63.716 26.432C62.504 24.703 61.484 22.806 60.648 20.813C59.812 18.82 59.244 16.77 58.74 14.641C58.508 13.686 58.4 12.71 58.168 11.734C57.48 8.85 57.132 5.747 56.48 2.717C56.452 2.675 57.224 2.738 58.504 2.842C61.748 3.111 64.908 3.55 68 4.154C71.164 4.739 74.264 5.494 77.304 6.417C78.744 6.846 80.672 7.07 80.888 8.421H36.368V88.421H104.14V8.421C104.14 8.421 104.132 8.421 104.12 8.421H104.14C104.14 7.07 106.068 6.846 107.508 6.417C110.548 5.494 113.648 4.739 116.812 4.154C119.904 3.55 123.064 3.111 126.308 2.842C127.588 2.738 128.36 2.675 128.332 2.717C127.68 5.747 127.332 8.85 126.644 11.734C126.412 12.71 126.304 13.686 126.072 14.641C125.568 16.77 125 18.82 124.164 20.813C123.328 22.806 122.308 24.703 121.096 26.432C117.868 30.994 113.628 34.528 108.704 37.09C106.444 38.345 103.8 39.298 101.108 40.031C99.716 40.403 98.224 40.467 96.84 40.84L96.34 41.25C97.292 41.342 98.244 41.435 99.196 41.527C102.148 41.734 105.412 42.008 108.124 43.144C108.348 43.245 108.704 43.245 108.704 43.55C108.628 43.855 108.532 44.041 108.38 44.16C107.132 45.251 105.452 45.671 103.952 46.123C101.584 46.863 99.196 47.592 96.828 48.332C95.836 48.669 93.856 49.23 93.636 50.389C94.744 50.456 96.264 50.895 97.276 51.247C100.9 52.416 104.396 53.843 107.652 55.633C109.108 56.456 111.2 57.336 112.156 58.843C114.42 62.16 111.464 65.244 108.884 66.748C107.58 67.535 106.048 68.038 104.512 68.601C101.968 69.517 99.436 70.352 96.832 71.182C95.352 71.635 93.616 71.869 92.396 72.518C91.656 72.906 90.916 73.448 90.36 73.974C89.244 75.025 88.248 76.361 87.352 77.633C86.464 78.903 85.752 80.286 85.056 81.677C84.74 82.269 84.632 82.905 84.196 83.308V83.001C84.444 82.665 84.502 82.204 84.696 81.825C85.164 80.96 85.688 80.161 86.204 79.346C87.684 77.055 89.456 74.966 91.356 73.087C92.728 71.728 95.94 69.852 96.664 68.294C96.76 68.162 96.808 67.987 96.9 67.813C96.2 67.738 95.368 67.526 94.696 67.341C93.336 67.003 92.08 67.077 90.712 66.739C90.04 66.57 89.364 66.401 88.692 66.232V65.756C89.476 64.972 89.992 63.914 90.696 63.067C92.784 60.599 95.116 58.378 97.492 56.28C98.404 55.486 99.508 54.923 100.472 54.242C100.868 53.958 101.644 53.766 101.9 53.35C102.4 52.556 102.58 51.608 102.896 50.685C103.78 48.192 104.624 45.526 105.432 42.972C105.9 41.559 106.228 40.17 106.776 38.848C110.384 30.944 114.34 26.67 123.06 22.358C125.244 21.371 127.824 20.883 130.404 20.558C131.844 20.516 133.284 20.474 134.724 20.432C135.628 20.117 136.564 19.177 137.324 18.668C140.104 16.846 148.908 12.807 152.32 18.837C154.5 22.706 150.9 26.511 149.388 28.547C148.312 29.945 147.04 31.471 146.264 32.992C145.804 33.938 145.74 34.904 145.312 35.903C144.38 38.131 143.7 40.535 142.46 42.555C141.836 43.57 141.136 44.638 140.384 45.569C139.92 46.14 139.144 46.405 138.988 47.273C139.664 48.19 139.716 49.586 140.104 50.811C141.736 56.342 141.008 63.138 138.32 66.901C137.608 67.834 135.984 69.832 133.956 69.159C132.164 68.556 132.76 66.298 132.204 64.502C132.036 64.018 132.16 63.662 131.868 63.361C131.868 63.403 131.868 63.444 131.868 63.486C131.16 64.902 130.452 66.317 129.744 67.733C128.232 69.927 125.484 72.188 122.944 73.596C121.628 74.328 120.684 75.868 119.108 76.278V75.971H119.276C119.568 75.552 120 75.371 120.368 75.077C121.28 74.345 122.256 73.468 122.944 72.645C125.172 69.969 127.144 67.023 128.88 63.947C129.712 62.45 130.444 60.817 131.108 59.274C131.364 58.733 131.364 57.898 131.808 57.635C132.584 58.921 133.732 60.006 134.324 61.525C135.196 63.796 135.304 66.484 135.916 69.199C136.248 69.242 136.12 69.199 136.252 69.326C137.608 68.965 138.156 67.603 138.724 66.41C140.272 63.247 140.552 58.025 139.312 54.211C138.96 53.121 137.476 49.946 138.144 48.942C138.44 48.04 139.32 47.532 139.868 46.836C140.476 46.054 141.136 45.079 141.556 44.202C142.668 41.833 143.168 39.13 144.204 36.715C144.708 35.525 145.68 34.347 146.428 33.279C147.288 32.075 148.248 31.151 148.892 29.734C149.16 29.165 149.536 28.191 149.132 27.58C149.052 27.197 148.796 27.048 148.444 26.95C147.736 26.593 145.68 27.197 144.928 27.454C142.74 28.109 140.812 28.723 138.892 29.692C137.952 30.156 136.996 31.119 135.916 31.384H134.476C132.652 31.693 130.664 31.361 128.936 31.823C126.004 32.602 123.412 33.984 121.096 35.51C113.976 40.171 108.376 47.033 105 55.507C104.472 56.783 104.252 57.993 103.768 59.326C102.784 62.05 101.464 64.854 100.472 67.536C99.496 70.177 98.544 72.859 97.168 75.251C96.472 76.431 93.288 77.068 91.904 77.786C90.928 78.284 89.496 78.75 88.692 79.346C87.144 80.459 85.64 81.677 84.196 82.894C83.48 83.574 80.672 85.156 80.672 85.156V88.421H148.444V8.421H80.672V85.156C80.672 85.156 83.48 83.574 84.196 82.894C85.64 81.677 87.144 80.459 88.692 79.346C89.496 78.75 90.928 78.284 91.904 77.786C93.288 77.068 96.472 76.431 97.168 75.251C98.544 72.859 99.496 70.177 100.472 67.536C101.464 64.854 102.784 62.05 103.768 59.326C104.252 57.993 104.472 56.783 105 55.507C108.376 47.033 113.976 40.171 121.096 35.51C123.412 33.984 126.004 32.602 128.936 31.823C130.664 31.361 132.652 31.693 134.476 31.384H135.916C136.996 31.119 137.952 30.156 138.892 29.692C140.812 28.723 142.74 28.109 144.928 27.454C145.68 27.197 147.736 26.593 148.444 26.95C148.796 27.048 149.052 27.197 149.132 27.58C149.536 28.191 149.16 29.165 148.892 29.734C148.248 31.151 147.288 32.075 146.428 33.279C145.68 34.347 144.708 35.525 144.204 36.715C143.168 39.13 142.668 41.833 141.556 44.202C141.136 45.079 140.476 46.054 139.868 46.836C139.32 47.532 138.44 48.04 138.144 48.942C137.476 49.946 138.96 53.121 139.312 54.211C140.552 58.025 140.272 63.247 138.724 66.41C138.156 67.603 137.608 68.965 136.252 69.326C136.12 69.199 136.248 69.242 135.916 69.199C135.304 66.484 135.196 63.796 134.324 61.525C133.732 60.006 132.584 58.921 131.808 57.635C131.364 57.898 131.364 58.733 131.108 59.274C130.444 60.817 129.712 62.45 128.88 63.947C127.144 67.023 125.172 69.969 122.944 72.645C122.256 73.468 121.28 74.345 120.368 75.077C120 75.371 119.568 75.552 119.276 75.971H119.108V76.278C120.684 75.868 121.628 74.328 122.944 73.596C125.484 72.188 128.232 69.927 129.744 67.733C130.452 66.317 131.16 64.902 131.868 63.486C131.868 63.444 131.868 63.403 131.868 63.361C132.16 63.662 132.036 64.018 132.204 64.502C132.76 66.298 132.164 68.556 133.956 69.159C135.984 69.832 137.608 67.834 138.32 66.901C141.008 63.138 141.736 56.342 140.104 50.811C139.716 49.586 139.664 48.19 138.988 47.273C139.144 46.405 139.92 46.14 140.384 45.569C141.136 44.638 141.836 43.57 142.46 42.555C143.7 40.535 144.38 38.131 145.312 35.903C145.74 34.904 145.804 33.938 146.264 32.992C147.04 31.471 148.312 29.945 149.388 28.547C150.9 26.511 154.5 22.706 152.32 18.837C148.908 12.807 140.104 16.846 137.324 18.668C136.564 19.177 135.628 20.117 134.724 20.432C133.284 20.474 131.844 20.516 130.404 20.558C127.824 20.883 125.244 21.371 123.06 22.358C114.34 26.67 110.384 30.944 106.776 38.848C106.228 40.17 105.9 41.559 105.432 42.972C104.624 45.526 103.78 48.192 102.896 50.685C102.58 51.608 102.4 52.556 101.9 53.35C101.644 53.766 100.868 53.958 100.472 54.242C99.508 54.923 98.404 55.486 97.492 56.28C95.116 58.378 92.784 60.599 90.696 63.067C89.992 63.914 89.476 64.972 88.692 65.756V66.232C89.364 66.401 90.04 66.57 90.712 66.739C92.08 67.077 93.336 67.003 94.696 67.341C95.368 67.526 96.2 67.738 96.9 67.813C96.808 67.987 96.76 68.162 96.664 68.294C95.94 69.852 92.728 71.728 91.356 73.087C89.456 74.966 87.684 77.055 86.204 79.346C85.688 80.161 85.164 80.96 84.696 81.825C84.502 82.204 84.444 82.665 84.196 83.001V83.308C84.632 82.905 84.74 82.269 85.056 81.677C85.752 80.286 86.464 78.903 87.352 77.633C88.248 76.361 89.244 75.025 90.36 73.974C90.916 73.448 91.656 72.906 92.396 72.518C93.616 71.869 95.352 71.635 96.832 71.182C99.436 70.352 101.968 69.517 104.512 68.601C106.048 68.038 107.58 67.535 108.884 66.748C111.464 65.244 114.42 62.16 112.156 58.843C111.2 57.336 109.108 56.456 107.652 55.633C104.396 53.843 100.9 52.416 97.276 51.247C96.264 50.895 94.744 50.456 93.636 50.389C93.856 49.23 95.836 48.669 96.828 48.332C99.196 47.592 101.584 46.863 103.952 46.123C105.452 45.671 107.132 45.251 108.38 44.16C108.532 44.041 108.628 43.855 108.704 43.55C108.704 43.245 108.348 43.245 108.124 43.144C105.412 42.008 102.148 41.734 99.196 41.527C98.244 41.435 97.292 41.342 96.34 41.25L96.84 40.84C98.224 40.467 99.716 40.403 101.108 40.031C103.8 39.298 106.444 38.345 108.704 37.09C113.628 34.528 117.868 30.994 121.096 26.432C122.308 24.703 123.328 22.806 124.164 20.813C125 18.82 125.568 16.77 126.072 14.641C126.304 13.686 126.412 12.71 126.644 11.734C127.332 8.85 127.68 5.747 128.332 2.717C128.36 2.675 127.588 2.738 126.308 2.842C123.064 3.111 119.904 3.55 116.812 4.154C113.648 4.739 110.548 5.494 107.508 6.417C106.068 6.846 104.14 7.07 104.14 8.421C104.14 8.421 104.14 8.421 104.14 8.421ZM92.405 2.842C94.477 2.675 92.405 2.842 92.405 2.842L92.405 2.842Z" fill="#1B31BF"/>
</svg>