<?xml version="1.0" encoding="UTF-8"?>
<svg width="200" height="57" viewBox="0 0 200 57" xmlns="http://www.w3.org/2000/svg">
  <path d="M36.667 47.5H29.167V30H26.667V47.5H19.167V30H10V57.5H66.667V10H50.833V47.5H36.667Z" fill="#8A2BE2"/>
  <path d="M73.333 10H120V47.5H113.333V17.5H106.667V47.5H100V17.5H93.333V47.5H80V57.5H136.667V10H73.333Z" fill="#8A2BE2"/>
  <path d="M143.333 10V57.5H170V47.5H176.667C183.333 47.5 190 42.5 190 37.5V30C190 22.5 186.667 17.5 176.667 17.5H170V10H143.333ZM170 25H173.333C175 25 176.667 26.25 176.667 28.75V38.75C176.667 41.25 175 42.5 173.333 42.5H170V25Z" fill="#8A2BE2"/>
</svg>