<?xml version="1.0" encoding="UTF-8"?>
<svg width="200" height="54" viewBox="0 0 200 54" xmlns="http://www.w3.org/2000/svg">
  <path d="M47.932 11.732V53.721L35.323 47.2V29.174L47.932 11.732ZM47.932 0.272L12.719 34.494V20.744L35.319 0.272H47.932ZM0.119 0.272V53.721L12.719 47.2V0.272H0.119Z" fill="#E50914"/>
  <path d="M86.05 17.396C86.05 15.752 85.066 15.048 82.998 15.048H80.218V22.532H81.666V19.76H83.082L85.13 22.532H86.858L84.6 19.696C85.416 19.448 86.05 18.648 86.05 17.396ZM81.666 18.536V16.272H82.942C83.982 16.272 84.572 16.68 84.572 17.404C84.572 18.128 83.982 18.536 82.942 18.536H81.666Z" fill="#E50914"/>
  <path d="M80.218 11.172H84.502C88.266 11.172 90.53 13.22 90.53 16.792C90.53 20.364 88.266 22.604 84.318 22.604H80.218V11.172ZM84.41 20.92C87.218 20.92 88.558 19.324 88.558 16.8C88.558 14.276 87.218 12.856 84.502 12.856H82.044V20.92H84.41Z" fill="#E50914"/>
  <path d="M162.422 17.812V24.46H160.626V17.812H158.478V16.268H164.566V17.812H162.422Z" fill="#E50914"/>
  <path d="M103.17 24.456L100.53 16.264H102.45L104.094 21.472L105.738 16.264H107.658L105.018 24.456H103.17Z" fill="#E50914"/>
  <path d="M171.534 24.632C168.762 24.632 167.25 22.928 167.25 20.428C167.25 17.928 168.762 16.104 171.534 16.104C174.306 16.104 175.818 17.928 175.818 20.428C175.822 22.928 174.306 24.632 171.534 24.632ZM171.534 17.664C169.978 17.664 169.158 18.804 169.158 20.392C169.158 21.98 169.978 23.16 171.534 23.16C173.09 23.16 173.91 21.98 173.91 20.392C173.91 18.808 173.09 17.664 171.534 17.664Z" fill="#E50914"/>
  <path d="M96.798 17.812V24.46H95.002V17.812H92.854V16.268H98.946V17.812H96.798Z" fill="#E50914"/>
  <path d="M115.042 19.344H119.446V20.896H115.042V22.9H119.742V24.452H113.242V16.264H119.622V17.816H115.042V19.344Z" fill="#E50914"/>
  <path d="M154.414 16.268H156.214V24.464H154.414V16.268Z" fill="#E50914"/>
  <path d="M126.962 24.456H125.162V16.264H128.102C130.322 16.264 131.482 17.112 131.482 18.892C131.482 20.38 130.526 21.368 128.954 21.476L131.502 24.456H129.494L127.174 21.584H126.962V24.456ZM126.962 20.112H127.958C129.174 20.112 129.71 19.724 129.71 18.812C129.71 17.908 129.174 17.628 127.958 17.628H126.962V20.112Z" fill="#E50914"/>
  <path d="M142.33 24.456L141.686 22.756H138.19L137.546 24.456H135.702L138.95 16, L140.94 16.264L144.182 24.456H142.33ZM139.966 18.116L138.726 21.292H141.15L139.966 18.116Z" fill="#E50914"/>
  <path d="M147.75 24.464H145.95V16.272H147.75V19.532H151.134V16.272H152.934V24.464H151.134V21.084H147.75V24.464Z" fill="#E50914"/>
  <path d="M192.066 16.264H193.866V22.9H197.386V24.452H192.066V16.264Z" fill="#E50914"/>
  <path d="M182.31 24.456L181.666 22.756H178.17L177.526 24.456H175.682L178.93 16, L180.92 16.264L184.162 24.456H182.31ZM179.946 18.116L178.706 21.292H181.13L179.946 18.116Z" fill="#E50914"/>
  <path d="M188.69 16.264C190.75 16.264 191.97 17.072 191.97 18.584C191.97 19.576 191.362 20.348 190.242 20.652L193.106 24.456H190.942L188.442 20.936H187.93V24.456H186.13V16.264H188.69ZM188.686 19.524C189.71 19.524 190.17 19.212 190.17 18.54C190.17 17.832 189.67 17.628 188.686 17.628H187.926V19.524H188.686Z" fill="#E50914"/>
</svg>