<?xml version="1.0" encoding="UTF-8"?>
<svg width="200" height="60" viewBox="0 0 200 60" xmlns="http://www.w3.org/2000/svg">
  <path d="M111.3 31.59C109.62 31.67 107.96 32.12 106.46 32.93C106.36 33.01 106.3 33.13 106.29 33.26C106.28 33.39 106.32 33.52 106.4 33.62C107.03 34.32 107.72 35.1 108.47 35.94C108.55 36.04 108.68 36.1 108.81 36.1C108.94 36.1 109.07 36.04 109.15 35.94C110.03 35.38 111.04 35.09 112.08 35.09H112.42C113.98 35.15 115.43 35.87 116.39 37.05C116.62 37.32 116.83 37.6 117.01 37.91C117.09 38.05 117.23 38.14 117.39 38.14H117.42C117.58 38.14 117.71 38.05 117.79 37.91C118.42 36.13 119.05 34.34 119.68 32.56C119.75 32.34 119.68 32.11 119.49 31.99C117.11 31.35 114.22 31.28 111.3 31.59Z" fill="#00A8E1"/>
  <path d="M112.44 40.08C109.75 40.08 107.03 39.76 104.4 39.11C104.17 39.05 104.02 38.83 104.02 38.6C104.02 38.19 104.02 37.77 104.1 37.36C104.1 37.21 104.17 37.09 104.28 37.01C104.39 36.93 104.51 36.9 104.66 36.9C105.72 37.05 106.79 37.15 107.85 37.25C109.38 37.4 110.9 37.48 112.42 37.48C116.03 37.48 119.57 37.02 122.91 36.09C122.98 36.07 123.05 36.07 123.12 36.09C123.19 36.12 123.24 36.16 123.29 36.22C123.34 36.28 123.36 36.35 123.36 36.42C123.36 36.49 123.34 36.57 123.29 36.62C121.6 38.98 119.28 40.08 116.31 40.08H112.44Z" fill="#00A8E1"/>
  <path d="M127.51 41.81C127.44 41.84 127.37 41.85 127.29 41.85C127.22 41.84 127.15 41.81 127.09 41.77C125.17 40.39 123.06 39.34 120.84 38.65C120.7 38.6 120.6 38.48 120.6 38.33C120.6 38.3 120.6 38.28 120.6 38.25C120.6 38.14 120.65 38.04 120.72 37.96C121.94 36.97 122.83 35.63 123.24 34.13C123.42 33.42 123.5 32.69 123.5 31.95C123.5 31.15 123.4 30.35 123.2 29.58C123.17 29.45 123.2 29.32 123.27 29.21C123.35 29.11 123.46 29.05 123.6 29.05H123.8C124.2 29.05 124.47 29.26 124.53 29.58C124.88 31.55 124.88 33.58 124.53 35.56C124.45 36.12 124.28 36.67 124.03 37.19C124.01 37.24 124 37.29 124.01 37.34C124.01 37.4 124.03 37.45 124.06 37.49C125.39 38.23 126.63 39.13 127.77 40.16C127.85 40.24 127.89 40.34 127.89 40.44C127.9 40.54 127.86 40.65 127.79 40.73C127.71 40.81 127.62 40.88 127.51 40.93V41.81Z" fill="#00A8E1"/>
  <path d="M86.667 13.333H74.167V46.667H86.667V13.333ZM112.5 13.333H100V46.667H112.5V13.333ZM68.333 46.667H56.667V13.333H68.333V46.667ZM144.167 46.667H132.5V13.333H144.167V46.667ZM175 13.333H162.5V46.667H175V13.333ZM156.667 13.333H150V30L153.333 25H161.667L156.667 32.5L163.333 46.667H153.333L150 37.5V46.667H138.333V13.333H156.667ZM125 13.333H118.333V30L121.667 25H130L125 32.5L131.667 46.667H121.667L118.333 37.5V46.667H106.667V13.333H125ZM93.333 13.333H86.667V30L90 25H98.333L93.333 32.5L100 46.667H90L86.667 37.5V46.667H75V13.333H93.333ZM49.167 13.333H42.5V30L45.833 25H54.167L49.167 32.5L55.833 46.667H45.833L42.5 37.5V46.667H30.833V13.333H49.167Z" fill="#00A8E1"/>
</svg>