<?xml version="1.0" encoding="UTF-8"?>
<svg width="200" height="60" viewBox="0 0 200 60" xmlns="http://www.w3.org/2000/svg">
  <path d="M100 10C78.103 10 60 28.103 60 50C60 71.897 78.103 90 100 90C121.897 90 140 71.897 140 50C140 28.103 121.897 10 100 10ZM118.5 68.045C117.26 70.154 114.795 70.823 112.686 69.58C104.417 64.737 94.161 63.58 78.942 66.314C76.449 66.763 74.046 65.194 73.597 62.701C73.152 60.207 74.716 57.804 77.215 57.355C94.212 54.351 106.071 55.715 115.759 61.253C117.867 62.493 118.54 64.958 117.297 67.067L118.5 68.045ZM124.598 56.88C123.054 59.529 119.955 60.372 117.308 58.828C107.817 53.174 93.483 51.392 80.442 54.829C77.414 55.649 74.272 53.868 73.449 50.843C72.629 47.815 74.412 44.677 77.436 43.854C92.884 39.883 109.326 41.914 120.65 48.594C123.297 50.138 124.142 53.235 122.598 55.883L124.598 56.88ZM125.058 45.17C113.731 38.531 92.857 37.888 79.599 41.8C76.001 42.774 72.277 40.68 71.301 37.084C70.327 33.486 72.42 29.764 76.018 28.788C91.44 24.296 114.731 25.05 128.146 32.737C131.401 34.646 132.375 38.817 130.466 42.066C128.56 45.314 124.383 46.294 121.14 44.383L125.058 45.17Z" fill="#1DB954"/>
</svg>